<?xml version="1.0" encoding="iso-8859-1"?>
<!-- Generator: Adobe Illustrator 19.0.0, SVG Export Plug-In . SVG Version: 6.00 Build 0)  -->
<svg version="1.1" id="Capa_1" xmlns="http://www.w3.org/2000/svg" xmlns:xlink="http://www.w3.org/1999/xlink" x="0px" y="0px"
	 viewBox="0 0 512 512" style="enable-background:new 0 0 512 512;" xml:space="preserve">
<g>
	<g>
		<polygon points="320,0 320,128 448,128 		"/>
	</g>
</g>
<g>
	<g>
		<path d="M320,160c-17.632,0-32-14.368-32-32V0H96C78.368,0,64,14.368,64,32v448c0,17.664,14.368,32,32,32h320
			c17.664,0,32-14.336,32-32V160H320z M144,96h96c8.832,0,16,7.168,16,16c0,8.832-7.168,16-16,16h-96c-8.832,0-16-7.168-16-16
			C128,103.168,135.168,96,144,96z M128,176c0-8.832,7.168-16,16-16h96c8.832,0,16,7.168,16,16c0,8.832-7.168,16-16,16h-96
			C135.168,192,128,184.832,128,176z M347.456,344.32l-34.368,35.2l8.128,49.92c0.992,6.016-1.568,12.128-6.56,15.648
			c-2.752,1.952-5.984,2.912-9.216,2.912c-2.656,0-5.312-0.672-7.744-2.016L256,422.944l-41.696,23.072
			c-5.376,3.008-11.936,2.624-16.96-0.896c-4.992-3.52-7.552-9.632-6.592-15.648l8.128-49.92l-34.336-35.232
			c-4.192-4.32-5.632-10.56-3.712-16.256c1.92-5.696,6.816-9.856,12.736-10.752l46.848-7.2l21.088-44.928
			c5.28-11.264,23.68-11.264,28.96,0l21.088,44.928l46.88,7.2c5.92,0.896,10.848,5.056,12.768,10.752
			C353.088,333.76,351.648,340,347.456,344.32z"/>
	</g>
</g>
<g>
</g>
<g>
</g>
<g>
</g>
<g>
</g>
<g>
</g>
<g>
</g>
<g>
</g>
<g>
</g>
<g>
</g>
<g>
</g>
<g>
</g>
<g>
</g>
<g>
</g>
<g>
</g>
<g>
</g>
</svg>
